<svg xmlns="http://www.w3.org/2000/svg" xmlns:xlink="http://www.w3.org/1999/xlink"
     width="380" height="410" stroke="white" stroke-width="10px" fill="none">
    <path d="M100,100 H300 V400 H100 Q200 250, 100 100" style="fill:url(#biere);"/>   
    <path d="M75,400 C190,253 70,20 19,126 "/>
    <path d="M100,400 H75 C-30 385, 35 200, 150 400"/>
    <path d="M300 150 Q400 250, 300 350"/>
    <path d="M300 125 Q440 250, 300 375"/>
    <path d="M100 100, A1,1 0 0,1 140,60 A1,1 0 0,1 200,30 A1,1 0 0,1 250 30 A1,1 0 0,1 290 60 A1,1 0 0,1 300 100" />
    <defs>
        <linearGradient id="biere" x1="0%" y1="0%" x2="0" y2="100%" spreadMethod="pad">
            <stop offset="0%" stop-color="rgb(255, 153, 0)" stop-opacity="1"/>
            <stop offset="100%" stop-color="#b34700" stop-opacity="1"/>
        </linearGradient>
    </defs>
</svg>